# xmcd CD database file generated by freedbAccess_ocx
#
# Track frame offsets:
#       150
#       9885
#       27200
#       45277
#       63297
#       78645
#       94972
#       105805
#       123622
#       143560
#       163522
#       180370
#       196487
#       215982
#
# Disc length: 3391 seconds
#
# Revision: 0
# Processed by: cddbd v1.5.1PL0 Copyright (c) Steve Scherf et al.
# Submitted via: CDnGo 2.00
#
DISCID=af0d3d0e
DTITLE=Hot Shot Blues Band - Handmade
DYEAR=1998
DGENRE=Blues
TTITLE0=Soft And Sometimes Loud
TTITLE1=I Have To Change My Life
TTITLE2=How Blue Is This Funky Thing?
TTITLE3=So Many Miles
TTITLE4=I Want To Move Away
TTITLE5=Favourite Things
TTITLE6=Boogie Woogie Dance
TTITLE7=Hardest Job
TTITLE8=Alone With The Kids
TTITLE9=Jazz Hole
TTITLE10=Kansas City
TTITLE11=It's A Funky Situation
TTITLE12=15 Years
TTITLE13=Let's Have A Party Tonight
EXTD=
EXTT0=
EXTT1=
EXTT2=
EXTT3=
EXTT4=
EXTT5=
EXTT6=
EXTT7=
EXTT8=
EXTT9=
EXTT10=
EXTT11=
EXTT12=
EXTT13=
PLAYORDER=
